<?xml version="1.0" encoding="UTF-8"?>
<svg width="100" height="100" viewBox="0 0 100 100" xmlns="http://www.w3.org/2000/svg">
  <style>
    .plant {
      fill: #64FFDA;
      opacity: 0.8;
    }
    .pot {
      fill: #546E7A;
    }
  </style>
  
  <!-- Pot -->
  <path class="pot" d="M30,70 L30,85 Q30,90 35,90 L65,90 Q70,90 70,85 L70,70 Z" />
  
  <!-- Plant stems and leaves -->
  <path class="plant" d="M50,70 L50,40 M45,45 Q35,35 40,25 M55,45 Q65,35 60,25 M50,50 Q40,45 35,50 M50,50 Q60,45 65,50 M50,40 Q40,30 45,20 M50,40 Q60,30 55,20" stroke="#64FFDA" stroke-width="2" fill="none" />
  
  <!-- Flower buds -->
  <circle class="plant" cx="40" cy="25" r="4" />
  <circle class="plant" cx="60" cy="25" r="4" />
  <circle class="plant" cx="35" cy="50" r="3" />
  <circle class="plant" cx="65" cy="50" r="3" />
  <circle class="plant" cx="45" cy="20" r="5" />
  <circle class="plant" cx="55" cy="20" r="5" />
</svg> 